<svg width="29" height="23" viewBox="0 0 29 23" fill="none" xmlns="http://www.w3.org/2000/svg">
<path d="M19.0606 0.142494V0.137695H20.3099L20.7664 0.228865C21.0707 0.288054 21.347 0.36562 21.5952 0.461589C21.8435 0.557557 22.0838 0.669528 22.316 0.797478C22.5482 0.925428 22.7589 1.0558 22.9479 1.18855C23.1353 1.31971 23.3035 1.45887 23.4524 1.60601C23.5997 1.75476 23.8296 1.79315 24.1419 1.72117C24.4542 1.6492 24.7906 1.54922 25.151 1.42127C25.5114 1.29332 25.8678 1.14937 26.2201 0.989415C26.5725 0.82946 26.7871 0.727901 26.864 0.684715C26.9393 0.639946 26.9793 0.615954 26.9841 0.612739L26.9889 0.605541L27.0129 0.593545L27.037 0.581549L27.061 0.569553L27.085 0.557557L27.0898 0.55036L27.097 0.545561L27.1043 0.540763L27.109 0.533565L27.1331 0.526367L27.1571 0.521569L27.1523 0.557557L27.1451 0.593545L27.1331 0.629533L27.1211 0.665522L27.109 0.689514L27.097 0.713506L27.085 0.749494C27.077 0.773486 27.069 0.805468 27.061 0.845462C27.053 0.885457 26.9769 1.04539 26.8328 1.3253C26.6886 1.60522 26.5084 1.88912 26.2922 2.17702C26.076 2.46493 25.8822 2.68244 25.7108 2.82961C25.5378 2.97836 25.4233 3.08232 25.3672 3.14151C25.3112 3.20228 25.2431 3.25825 25.163 3.30945L25.0429 3.38863L25.0188 3.40062L24.9948 3.41262L24.99 3.41982L24.9828 3.42461L24.9756 3.42941L24.9708 3.43661L24.9468 3.44861L24.9227 3.4606L24.918 3.4678L24.9107 3.4726L24.9035 3.4774L24.8987 3.48459L24.8939 3.49179L24.8867 3.49659L24.8795 3.50139L24.8747 3.50859H24.9948L25.6675 3.36463C26.116 3.26867 26.5445 3.15271 26.9529 3.01675L27.6016 2.80082L27.6736 2.77683L27.7097 2.76483L27.7337 2.75283L27.7577 2.74084L27.7818 2.72884L27.8058 2.71685L27.8538 2.70965L27.9019 2.70485V2.75283L27.8899 2.75763L27.8779 2.76483L27.8731 2.77203L27.8658 2.77683L27.8586 2.78163L27.8538 2.78882L27.8491 2.79602L27.8418 2.80082L27.8346 2.80562L27.8298 2.81282L27.825 2.82001L27.8178 2.82481L27.8058 2.8488L27.7938 2.8728L27.7866 2.87759C27.7834 2.88239 27.6817 3.01833 27.4814 3.28546C27.2812 3.55417 27.1731 3.69011 27.1571 3.69333C27.1411 3.69812 27.1187 3.72212 27.0898 3.7653C27.0626 3.81007 26.8928 3.98843 26.5805 4.30033C26.2682 4.61222 25.9623 4.88972 25.6627 5.13285C25.3616 5.37757 25.2095 5.67826 25.2063 6.03496C25.2015 6.39004 25.183 6.79152 25.151 7.23936C25.119 7.68722 25.0589 8.17104 24.9708 8.69088C24.8827 9.21072 24.7466 9.79852 24.5624 10.4543C24.3782 11.1101 24.1539 11.7499 23.8897 12.3737C23.6254 12.9975 23.3491 13.5573 23.0608 14.0531C22.7725 14.549 22.5082 14.9688 22.2679 15.3127C22.0277 15.6566 21.7835 15.9805 21.5352 16.2844C21.2869 16.5883 20.973 16.9306 20.5934 17.3112C20.2122 17.6903 20.004 17.8983 19.9687 17.935C19.9319 17.9702 19.775 18.1014 19.4978 18.3285C19.2224 18.5572 18.926 18.7859 18.6089 19.0147C18.2934 19.2418 18.0035 19.4314 17.7392 19.5833C17.4749 19.7352 17.1562 19.9088 16.783 20.1039C16.4114 20.3007 16.0094 20.483 15.5769 20.6509C15.1444 20.8189 14.688 20.9748 14.2075 21.1188C13.7269 21.2627 13.2625 21.3747 12.814 21.4547C12.3655 21.5346 11.857 21.6026 11.2884 21.6586L10.4355 21.7426V21.7546H8.87384V21.7426L8.66962 21.7306C8.53349 21.7226 8.42137 21.7146 8.33327 21.7066C8.24519 21.6986 7.91282 21.6546 7.33622 21.5746C6.75961 21.4947 6.30714 21.4147 5.97879 21.3347C5.65046 21.2548 5.16193 21.1028 4.51324 20.8789C3.86456 20.655 3.30957 20.4286 2.84829 20.1999C2.38861 19.9728 2.10031 19.8288 1.98338 19.768C1.86806 19.7088 1.73832 19.6353 1.59417 19.5473L1.37794 19.4154L1.37316 19.4082L1.36593 19.4034L1.35872 19.3986L1.35391 19.3914L1.32989 19.3794L1.30586 19.3674L1.30108 19.3602L1.29385 19.3554L1.28664 19.3506L1.28184 19.3434L1.27706 19.3362L1.26983 19.3314H1.25781V19.2834L1.28184 19.2882L1.30586 19.2954L1.41398 19.3074C1.48605 19.3154 1.68227 19.3274 2.0026 19.3434C2.32295 19.3594 2.66329 19.3594 3.02367 19.3434C3.38405 19.3274 3.75246 19.2914 4.12884 19.2354C4.50524 19.1794 4.94971 19.0835 5.46224 18.9475C5.9748 18.8115 6.44569 18.65 6.87495 18.4629C7.3026 18.2741 7.60691 18.1334 7.78792 18.0406C7.96729 17.9494 8.24118 17.7799 8.60956 17.532L9.16214 17.1601L9.16694 17.1529L9.17415 17.1481L9.18138 17.1433L9.18616 17.1361L9.19097 17.1289L9.19818 17.1241L9.20541 17.1193L9.21019 17.1121L9.23422 17.1049L9.25824 17.1001L9.26305 17.0761L9.27025 17.0521L9.27748 17.0473L9.28227 17.0401L9.09006 17.0281C8.96194 17.0201 8.8378 17.0121 8.71767 17.0041C8.59754 16.9962 8.40935 16.9602 8.15308 16.8962C7.89682 16.8322 7.62053 16.7362 7.3242 16.6083C7.0279 16.4803 6.7396 16.3284 6.45929 16.1524C6.17901 15.9765 5.97638 15.8301 5.85145 15.7134C5.72813 15.5982 5.56795 15.4351 5.37095 15.2239C5.17555 15.0112 5.00576 14.7929 4.86161 14.5689C4.71746 14.345 4.57972 14.0867 4.4484 13.794L4.24896 13.3573L4.23695 13.3214L4.22494 13.2854L4.21773 13.2614L4.21293 13.2374L4.24896 13.2422L4.285 13.2494L4.54928 13.2854C4.72548 13.3094 5.00177 13.3174 5.37815 13.3094C5.75456 13.3014 6.01482 13.2854 6.15898 13.2614C6.30313 13.2374 6.39123 13.2214 6.42325 13.2134L6.4713 13.2014L6.53137 13.1894L6.59143 13.1774L6.59624 13.1702L6.60344 13.1654L6.61068 13.1606L6.61546 13.1534L6.56741 13.1414L6.51936 13.1294L6.4713 13.1174L6.42325 13.1054L6.3752 13.0934C6.34318 13.0854 6.28713 13.0694 6.20703 13.0454C6.12695 13.0215 5.91072 12.9335 5.55834 12.7815C5.20599 12.6296 4.92568 12.4816 4.71746 12.3377C4.50871 12.1933 4.30968 12.0354 4.12163 11.865C3.93423 11.6923 3.72843 11.47 3.50418 11.1981C3.27995 10.9262 3.07975 10.6102 2.90355 10.2504C2.72737 9.89049 2.59523 9.54661 2.50713 9.21871C2.41938 8.89274 2.36149 8.55947 2.33417 8.22303L2.2909 7.7192L2.31493 7.724L2.33895 7.7312L2.36298 7.74319L2.387 7.75519L2.41103 7.76719L2.43505 7.77918L2.80744 7.94713C3.05572 8.0591 3.36404 8.15507 3.73242 8.23503C4.10082 8.315 4.32104 8.359 4.39312 8.36699L4.50123 8.37898H4.71746L4.71268 8.37179L4.70544 8.36699L4.69824 8.36219L4.69343 8.35499L4.68865 8.34779L4.68142 8.343L4.67421 8.3382L4.66941 8.331L4.64538 8.319L4.62136 8.30701L4.61657 8.29981L4.60934 8.29501L4.60214 8.29021L4.59733 8.28302L4.57331 8.27102L4.54928 8.25902L4.5445 8.25183C4.53969 8.24861 4.47081 8.19744 4.33786 8.09828C4.20651 7.99751 4.06877 7.86716 3.92462 7.7072C3.78047 7.54725 3.63632 7.3793 3.49217 7.20337C3.34775 7.02703 3.21912 6.83837 3.10776 6.63956C2.99566 6.43963 2.87712 6.18529 2.75219 5.87661C2.62886 5.56951 2.53517 5.26001 2.47109 4.94811C2.40704 4.63622 2.371 4.32832 2.36298 4.02442C2.35498 3.72051 2.36298 3.4606 2.387 3.24467C2.41103 3.02874 2.45908 2.78482 2.53115 2.51291C2.60323 2.24101 2.70736 1.95311 2.84348 1.6492L3.0477 1.19335L3.05971 1.15736L3.07172 1.12137L3.07896 1.11657L3.08374 1.10938L3.08854 1.10218L3.09575 1.09738L3.10298 1.10218L3.10776 1.10938L3.11257 1.11657L3.11977 1.12137L3.12701 1.12617L3.13179 1.13337L3.13659 1.14057L3.1438 1.14536L3.15581 1.16936L3.16782 1.19335L3.17506 1.19815L3.17984 1.20534L3.50418 1.56523C3.72041 1.80515 3.97668 2.07307 4.27299 2.36896C4.56932 2.66486 4.73348 2.81841 4.76551 2.82961C4.79756 2.8424 4.83758 2.87918 4.88563 2.93997C4.93368 2.99916 5.09386 3.14072 5.36614 3.36463C5.63844 3.58855 5.99481 3.84848 6.43527 4.14438C6.87575 4.44027 7.36425 4.73218 7.90081 5.02009C8.43739 5.30799 9.014 5.5679 9.63063 5.79983C10.2473 6.03176 10.6797 6.18371 10.928 6.25568C11.1763 6.32766 11.6007 6.41962 12.2013 6.53159C12.802 6.64356 13.2545 6.71554 13.5588 6.74752C13.8631 6.7795 14.0713 6.7979 14.1834 6.8027L14.3516 6.8075L14.3468 6.77151L14.3396 6.73552L14.2915 6.43562C14.2595 6.2357 14.2435 5.95578 14.2435 5.5959C14.2435 5.23602 14.2715 4.90414 14.3276 4.60023C14.3837 4.29632 14.4677 3.98843 14.5798 3.67653C14.692 3.36463 14.8017 3.1143 14.909 2.92558C15.0179 2.73844 15.1605 2.52491 15.3366 2.28499C15.5128 2.04507 15.7411 1.79716 16.0214 1.54123C16.3017 1.28531 16.622 1.05738 16.9824 0.857458C17.3428 0.657532 17.6751 0.505566 17.9794 0.401608C18.2838 0.297651 18.54 0.229657 18.7482 0.197676C18.9565 0.165694 19.0606 0.147292 19.0606 0.142494Z" fill="#D68240"/>
</svg>
