<svg width="29" height="29" viewBox="0 0 29 29" fill="none" xmlns="http://www.w3.org/2000/svg">
<path fill-rule="evenodd" clip-rule="evenodd" d="M1.25781 13.9065C1.25781 8.58489 1.25781 5.92408 2.52591 4.00757C3.09218 3.15176 3.8251 2.41884 4.68091 1.85257C6.59742 0.584473 9.25823 0.584473 14.5798 0.584473C19.9015 0.584473 22.5623 0.584473 24.4788 1.85257C25.3346 2.41884 26.0675 3.15176 26.6338 4.00757C27.9019 5.92408 27.9019 8.58489 27.9019 13.9065C27.9019 19.2281 27.9019 21.8889 26.6338 23.8054C26.0675 24.6613 25.3346 25.3942 24.4788 25.9604C22.5623 27.2285 19.9015 27.2285 14.5798 27.2285C9.25823 27.2285 6.59742 27.2285 4.68091 25.9604C3.8251 25.3942 3.09218 24.6613 2.52591 23.8054C1.25781 21.8889 1.25781 19.2281 1.25781 13.9065ZM21.4766 13.9072C21.4766 17.7163 18.3887 20.8042 14.5796 20.8042C10.7705 20.8042 7.68265 17.7163 7.68265 13.9072C7.68265 10.0981 10.7705 7.01021 14.5796 7.01021C18.3887 7.01021 21.4766 10.0981 21.4766 13.9072ZM14.5796 18.4707C17.1 18.4707 19.1432 16.4276 19.1432 13.9072C19.1432 11.3868 17.1 9.34365 14.5796 9.34365C12.0593 9.34365 10.0161 11.3868 10.0161 13.9072C10.0161 16.4276 12.0593 18.4707 14.5796 18.4707ZM21.7487 8.28408C22.6438 8.28408 23.3693 7.55851 23.3693 6.66349C23.3693 5.76846 22.6438 5.0429 21.7487 5.0429C20.8537 5.0429 20.1281 5.76846 20.1281 6.66349C20.1281 7.55851 20.8537 8.28408 21.7487 8.28408Z" fill="#D68240"/>
</svg>
